<mxfile host="Electron" agent="Mozilla/5.0 (Windows NT 10.0; Win64; x64) AppleWebKit/537.36 (KHTML, like Gecko) draw.io/28.1.2 Chrome/138.0.7204.243 Electron/37.4.0 Safari/537.36" version="28.1.2">
  <diagram name="Page-1" id="dD0RzbWAJRVFWUIthWXu">
    <mxGraphModel dx="1186" dy="845" grid="1" gridSize="10" guides="1" tooltips="1" connect="1" arrows="1" fold="1" page="1" pageScale="1" pageWidth="850" pageHeight="1100" math="0" shadow="0">
      <root>
        <mxCell id="0" />
        <mxCell id="1" parent="0" />
        <mxCell id="jijcVxQb25p9yLqvrZua-1" value="" style="ellipse;html=1;shape=startState;fillColor=#000000;strokeColor=#ff0000;" parent="1" vertex="1">
          <mxGeometry x="190" y="30" width="30" height="30" as="geometry" />
        </mxCell>
        <mxCell id="jijcVxQb25p9yLqvrZua-2" value="" style="edgeStyle=orthogonalEdgeStyle;html=1;verticalAlign=bottom;endArrow=open;endSize=8;strokeColor=#ff0000;rounded=0;" parent="1" source="jijcVxQb25p9yLqvrZua-1" edge="1">
          <mxGeometry relative="1" as="geometry">
            <mxPoint x="205" y="120" as="targetPoint" />
          </mxGeometry>
        </mxCell>
        <mxCell id="jijcVxQb25p9yLqvrZua-3" value="Nova porudžbina" style="swimlane;fontStyle=1;align=center;verticalAlign=middle;childLayout=stackLayout;horizontal=1;startSize=30;horizontalStack=0;resizeParent=0;resizeLast=1;container=0;fontColor=#000000;collapsible=0;rounded=1;arcSize=30;strokeColor=#ff0000;fillColor=#ffffc0;swimlaneFillColor=#ffffc0;dropTarget=0;" parent="1" vertex="1">
          <mxGeometry x="30" y="120" width="360" height="230" as="geometry" />
        </mxCell>
        <mxCell id="jijcVxQb25p9yLqvrZua-14" style="edgeStyle=orthogonalEdgeStyle;rounded=0;orthogonalLoop=1;jettySize=auto;html=1;entryX=0.5;entryY=0;entryDx=0;entryDy=0;fillColor=#f8cecc;strokeColor=#b85450;" parent="1" source="jijcVxQb25p9yLqvrZua-6" target="jijcVxQb25p9yLqvrZua-12" edge="1">
          <mxGeometry relative="1" as="geometry" />
        </mxCell>
        <mxCell id="jijcVxQb25p9yLqvrZua-16" value="Uspešno kreirana" style="edgeLabel;html=1;align=center;verticalAlign=middle;resizable=0;points=[];" parent="jijcVxQb25p9yLqvrZua-14" vertex="1" connectable="0">
          <mxGeometry x="0.6903" y="1" relative="1" as="geometry">
            <mxPoint as="offset" />
          </mxGeometry>
        </mxCell>
        <mxCell id="jijcVxQb25p9yLqvrZua-6" value="Kreirana" style="rounded=1;whiteSpace=wrap;html=1;arcSize=40;fontColor=#000000;fillColor=#ffffc0;strokeColor=#ff0000;" parent="1" vertex="1">
          <mxGeometry x="145" y="170" width="120" height="40" as="geometry" />
        </mxCell>
        <mxCell id="jijcVxQb25p9yLqvrZua-7" value="" style="edgeStyle=orthogonalEdgeStyle;html=1;verticalAlign=bottom;endArrow=open;endSize=8;strokeColor=#ff0000;rounded=0;entryX=0.5;entryY=0;entryDx=0;entryDy=0;" parent="1" source="jijcVxQb25p9yLqvrZua-6" target="jijcVxQb25p9yLqvrZua-10" edge="1">
          <mxGeometry relative="1" as="geometry">
            <mxPoint x="205" y="270" as="targetPoint" />
          </mxGeometry>
        </mxCell>
        <mxCell id="jijcVxQb25p9yLqvrZua-15" value="Neuspešno kreirana" style="edgeLabel;html=1;align=center;verticalAlign=middle;resizable=0;points=[];" parent="jijcVxQb25p9yLqvrZua-7" vertex="1" connectable="0">
          <mxGeometry x="0.7143" y="-1" relative="1" as="geometry">
            <mxPoint as="offset" />
          </mxGeometry>
        </mxCell>
        <mxCell id="jijcVxQb25p9yLqvrZua-61" style="edgeStyle=elbowEdgeStyle;rounded=0;orthogonalLoop=1;jettySize=auto;html=1;elbow=vertical;endArrow=none;endFill=0;" parent="1" edge="1">
          <mxGeometry relative="1" as="geometry">
            <mxPoint x="470" y="590" as="targetPoint" />
            <mxPoint x="90" y="330" as="sourcePoint" />
            <Array as="points">
              <mxPoint x="280" y="420" />
            </Array>
          </mxGeometry>
        </mxCell>
        <mxCell id="jijcVxQb25p9yLqvrZua-10" value="Odbijena" style="rounded=1;whiteSpace=wrap;html=1;arcSize=40;fontColor=#000000;fillColor=#ffffc0;strokeColor=#ff0000;" parent="1" vertex="1">
          <mxGeometry x="50" y="290" width="120" height="40" as="geometry" />
        </mxCell>
        <mxCell id="jijcVxQb25p9yLqvrZua-47" style="edgeStyle=orthogonalEdgeStyle;rounded=0;orthogonalLoop=1;jettySize=auto;html=1;exitX=0.928;exitY=0.167;exitDx=0;exitDy=0;exitPerimeter=0;" parent="1" source="jijcVxQb25p9yLqvrZua-12" edge="1">
          <mxGeometry relative="1" as="geometry">
            <mxPoint x="560" y="220" as="targetPoint" />
            <Array as="points">
              <mxPoint x="331" y="290" />
              <mxPoint x="450" y="290" />
              <mxPoint x="450" y="220" />
              <mxPoint x="560" y="220" />
            </Array>
          </mxGeometry>
        </mxCell>
        <mxCell id="jijcVxQb25p9yLqvrZua-48" value="Admin/vlasnik&amp;nbsp;&lt;div&gt;obaveštava&lt;/div&gt;&lt;div&gt;detalje&lt;/div&gt;" style="edgeLabel;html=1;align=center;verticalAlign=middle;resizable=0;points=[];" parent="jijcVxQb25p9yLqvrZua-47" vertex="1" connectable="0">
          <mxGeometry x="-0.1798" y="2" relative="1" as="geometry">
            <mxPoint x="2" y="-30" as="offset" />
          </mxGeometry>
        </mxCell>
        <mxCell id="jijcVxQb25p9yLqvrZua-12" value="Potvrdjena" style="rounded=1;whiteSpace=wrap;html=1;arcSize=40;fontColor=#000000;fillColor=#ffffc0;strokeColor=#ff0000;" parent="1" vertex="1">
          <mxGeometry x="220" y="290" width="120" height="40" as="geometry" />
        </mxCell>
        <mxCell id="jijcVxQb25p9yLqvrZua-13" value="" style="edgeStyle=orthogonalEdgeStyle;html=1;verticalAlign=bottom;endArrow=open;endSize=8;strokeColor=#ff0000;rounded=0;entryX=0.5;entryY=0;entryDx=0;entryDy=0;" parent="1" source="jijcVxQb25p9yLqvrZua-12" target="jijcVxQb25p9yLqvrZua-17" edge="1">
          <mxGeometry relative="1" as="geometry">
            <mxPoint x="280" y="390" as="targetPoint" />
          </mxGeometry>
        </mxCell>
        <mxCell id="jijcVxQb25p9yLqvrZua-20" value="Zatraži izmenu" style="edgeLabel;html=1;align=center;verticalAlign=middle;resizable=0;points=[];" parent="jijcVxQb25p9yLqvrZua-13" vertex="1" connectable="0">
          <mxGeometry x="0.1273" y="-1" relative="1" as="geometry">
            <mxPoint as="offset" />
          </mxGeometry>
        </mxCell>
        <mxCell id="jijcVxQb25p9yLqvrZua-38" style="edgeStyle=elbowEdgeStyle;rounded=0;orthogonalLoop=1;jettySize=auto;html=1;entryX=1;entryY=0.5;entryDx=0;entryDy=0;entryPerimeter=0;" parent="1" source="jijcVxQb25p9yLqvrZua-17" target="jijcVxQb25p9yLqvrZua-12" edge="1">
          <mxGeometry relative="1" as="geometry">
            <mxPoint x="350" y="310" as="targetPoint" />
            <Array as="points">
              <mxPoint x="510" y="380" />
            </Array>
          </mxGeometry>
        </mxCell>
        <mxCell id="jijcVxQb25p9yLqvrZua-39" value="Izmenjena" style="edgeLabel;html=1;align=center;verticalAlign=middle;resizable=0;points=[];" parent="jijcVxQb25p9yLqvrZua-38" vertex="1" connectable="0">
          <mxGeometry x="0.0938" y="1" relative="1" as="geometry">
            <mxPoint as="offset" />
          </mxGeometry>
        </mxCell>
        <mxCell id="jijcVxQb25p9yLqvrZua-42" style="edgeStyle=elbowEdgeStyle;rounded=0;orthogonalLoop=1;jettySize=auto;html=1;entryX=0;entryY=0.5;entryDx=0;entryDy=0;" parent="1" source="jijcVxQb25p9yLqvrZua-17" target="jijcVxQb25p9yLqvrZua-12" edge="1">
          <mxGeometry relative="1" as="geometry">
            <mxPoint x="210" y="380" as="targetPoint" />
            <Array as="points">
              <mxPoint x="190" y="400" />
            </Array>
          </mxGeometry>
        </mxCell>
        <mxCell id="jijcVxQb25p9yLqvrZua-43" value="Odbijen" style="edgeLabel;html=1;align=center;verticalAlign=middle;resizable=0;points=[];" parent="jijcVxQb25p9yLqvrZua-42" vertex="1" connectable="0">
          <mxGeometry x="-0.4292" y="3" relative="1" as="geometry">
            <mxPoint as="offset" />
          </mxGeometry>
        </mxCell>
        <mxCell id="jijcVxQb25p9yLqvrZua-17" value="Zahtev za izmenom" style="swimlane;fontStyle=1;align=center;verticalAlign=middle;childLayout=stackLayout;horizontal=1;startSize=30;horizontalStack=0;resizeParent=0;resizeLast=1;container=0;fontColor=#000000;collapsible=0;rounded=1;arcSize=30;strokeColor=#ff0000;fillColor=#ffffc0;swimlaneFillColor=#ffffc0;dropTarget=0;" parent="1" vertex="1">
          <mxGeometry x="120" y="440" width="320" height="390" as="geometry" />
        </mxCell>
        <mxCell id="jijcVxQb25p9yLqvrZua-21" value="Posnešen" style="rounded=1;whiteSpace=wrap;html=1;arcSize=40;fontColor=#000000;fillColor=#ffffc0;strokeColor=#ff0000;" parent="1" vertex="1">
          <mxGeometry x="220" y="480" width="120" height="40" as="geometry" />
        </mxCell>
        <mxCell id="jijcVxQb25p9yLqvrZua-22" value="" style="edgeStyle=orthogonalEdgeStyle;html=1;verticalAlign=bottom;endArrow=open;endSize=8;strokeColor=#ff0000;rounded=0;" parent="1" source="jijcVxQb25p9yLqvrZua-21" edge="1">
          <mxGeometry relative="1" as="geometry">
            <mxPoint x="280" y="580" as="targetPoint" />
          </mxGeometry>
        </mxCell>
        <mxCell id="jijcVxQb25p9yLqvrZua-23" value="Admin prihvatio" style="edgeLabel;html=1;align=center;verticalAlign=middle;resizable=0;points=[];" parent="jijcVxQb25p9yLqvrZua-22" vertex="1" connectable="0">
          <mxGeometry x="-0.3389" y="-1" relative="1" as="geometry">
            <mxPoint as="offset" />
          </mxGeometry>
        </mxCell>
        <mxCell id="jijcVxQb25p9yLqvrZua-31" style="edgeStyle=orthogonalEdgeStyle;rounded=0;orthogonalLoop=1;jettySize=auto;html=1;entryX=0.594;entryY=0.017;entryDx=0;entryDy=0;entryPerimeter=0;" parent="1" source="jijcVxQb25p9yLqvrZua-24" target="jijcVxQb25p9yLqvrZua-29" edge="1">
          <mxGeometry relative="1" as="geometry">
            <mxPoint x="380" y="660" as="targetPoint" />
            <Array as="points">
              <mxPoint x="381" y="600" />
            </Array>
          </mxGeometry>
        </mxCell>
        <mxCell id="jijcVxQb25p9yLqvrZua-32" value="Prihvati izmenu" style="edgeLabel;html=1;align=center;verticalAlign=middle;resizable=0;points=[];" parent="jijcVxQb25p9yLqvrZua-31" vertex="1" connectable="0">
          <mxGeometry x="0.3806" relative="1" as="geometry">
            <mxPoint as="offset" />
          </mxGeometry>
        </mxCell>
        <mxCell id="jijcVxQb25p9yLqvrZua-24" value="U obradi" style="rounded=1;whiteSpace=wrap;html=1;arcSize=40;fontColor=#000000;fillColor=#ffffc0;strokeColor=#ff0000;" parent="1" vertex="1">
          <mxGeometry x="220" y="580" width="120" height="40" as="geometry" />
        </mxCell>
        <mxCell id="jijcVxQb25p9yLqvrZua-25" value="" style="edgeStyle=orthogonalEdgeStyle;html=1;verticalAlign=bottom;endArrow=open;endSize=8;strokeColor=#ff0000;rounded=0;" parent="1" source="jijcVxQb25p9yLqvrZua-24" edge="1">
          <mxGeometry relative="1" as="geometry">
            <mxPoint x="190" y="670" as="targetPoint" />
          </mxGeometry>
        </mxCell>
        <mxCell id="jijcVxQb25p9yLqvrZua-26" value="Odbij izmenu" style="edgeLabel;html=1;align=center;verticalAlign=middle;resizable=0;points=[];" parent="jijcVxQb25p9yLqvrZua-25" vertex="1" connectable="0">
          <mxGeometry x="-0.0744" y="2" relative="1" as="geometry">
            <mxPoint y="13" as="offset" />
          </mxGeometry>
        </mxCell>
        <mxCell id="jijcVxQb25p9yLqvrZua-27" value="Odbijen" style="rounded=1;whiteSpace=wrap;html=1;arcSize=40;fontColor=#000000;fillColor=#ffffc0;strokeColor=#ff0000;" parent="1" vertex="1">
          <mxGeometry x="130" y="670" width="120" height="40" as="geometry" />
        </mxCell>
        <mxCell id="jijcVxQb25p9yLqvrZua-35" style="edgeStyle=orthogonalEdgeStyle;rounded=0;orthogonalLoop=1;jettySize=auto;html=1;entryX=0.5;entryY=0;entryDx=0;entryDy=0;" parent="1" source="jijcVxQb25p9yLqvrZua-29" target="jijcVxQb25p9yLqvrZua-33" edge="1">
          <mxGeometry relative="1" as="geometry" />
        </mxCell>
        <mxCell id="jijcVxQb25p9yLqvrZua-36" value="Primeni izmene" style="edgeLabel;html=1;align=center;verticalAlign=middle;resizable=0;points=[];" parent="jijcVxQb25p9yLqvrZua-35" vertex="1" connectable="0">
          <mxGeometry x="-0.16" y="-1" relative="1" as="geometry">
            <mxPoint as="offset" />
          </mxGeometry>
        </mxCell>
        <mxCell id="jijcVxQb25p9yLqvrZua-29" value="Prihvaćen" style="rounded=1;whiteSpace=wrap;html=1;arcSize=40;fontColor=#000000;fillColor=#ffffc0;strokeColor=#ff0000;" parent="1" vertex="1">
          <mxGeometry x="310" y="670" width="120" height="40" as="geometry" />
        </mxCell>
        <mxCell id="jijcVxQb25p9yLqvrZua-33" value="Izmenjeno" style="rounded=1;whiteSpace=wrap;html=1;arcSize=40;fontColor=#000000;fillColor=#ffffc0;strokeColor=#ff0000;" parent="1" vertex="1">
          <mxGeometry x="310" y="760" width="120" height="40" as="geometry" />
        </mxCell>
        <mxCell id="jijcVxQb25p9yLqvrZua-44" value="Dostava" style="swimlane;fontStyle=1;align=center;verticalAlign=middle;childLayout=stackLayout;horizontal=1;startSize=30;horizontalStack=0;resizeParent=0;resizeLast=1;container=0;fontColor=#000000;collapsible=0;rounded=1;arcSize=30;strokeColor=#ff0000;fillColor=#ffffc0;swimlaneFillColor=#ffffc0;dropTarget=0;" parent="1" vertex="1">
          <mxGeometry x="560" y="120" width="240" height="310" as="geometry" />
        </mxCell>
        <mxCell id="jijcVxQb25p9yLqvrZua-64" style="edgeStyle=elbowEdgeStyle;rounded=0;orthogonalLoop=1;jettySize=auto;html=1;" parent="1" source="jijcVxQb25p9yLqvrZua-49" edge="1">
          <mxGeometry relative="1" as="geometry">
            <mxPoint x="790" y="500" as="targetPoint" />
            <Array as="points">
              <mxPoint x="810" y="340" />
            </Array>
          </mxGeometry>
        </mxCell>
        <mxCell id="jijcVxQb25p9yLqvrZua-67" value="Otkaži" style="edgeLabel;html=1;align=center;verticalAlign=middle;resizable=0;points=[];" parent="jijcVxQb25p9yLqvrZua-64" vertex="1" connectable="0">
          <mxGeometry x="0.6943" y="1" relative="1" as="geometry">
            <mxPoint as="offset" />
          </mxGeometry>
        </mxCell>
        <mxCell id="jijcVxQb25p9yLqvrZua-49" value="U pripremi" style="rounded=1;whiteSpace=wrap;html=1;arcSize=40;fontColor=#000000;fillColor=#ffffc0;strokeColor=#ff0000;" parent="1" vertex="1">
          <mxGeometry x="620" y="160" width="120" height="40" as="geometry" />
        </mxCell>
        <mxCell id="jijcVxQb25p9yLqvrZua-50" value="" style="edgeStyle=orthogonalEdgeStyle;html=1;verticalAlign=bottom;endArrow=open;endSize=8;strokeColor=#ff0000;rounded=0;" parent="1" source="jijcVxQb25p9yLqvrZua-49" edge="1">
          <mxGeometry relative="1" as="geometry">
            <mxPoint x="680" y="260" as="targetPoint" />
          </mxGeometry>
        </mxCell>
        <mxCell id="jijcVxQb25p9yLqvrZua-53" value="Pakovanje" style="edgeLabel;html=1;align=center;verticalAlign=middle;resizable=0;points=[];" parent="jijcVxQb25p9yLqvrZua-50" vertex="1" connectable="0">
          <mxGeometry x="-0.1956" y="3" relative="1" as="geometry">
            <mxPoint as="offset" />
          </mxGeometry>
        </mxCell>
        <mxCell id="jijcVxQb25p9yLqvrZua-68" style="edgeStyle=orthogonalEdgeStyle;rounded=0;orthogonalLoop=1;jettySize=auto;html=1;" parent="1" source="jijcVxQb25p9yLqvrZua-51" edge="1">
          <mxGeometry relative="1" as="geometry">
            <mxPoint x="780" y="480" as="targetPoint" />
          </mxGeometry>
        </mxCell>
        <mxCell id="jijcVxQb25p9yLqvrZua-69" value="Otkaži" style="edgeLabel;html=1;align=center;verticalAlign=middle;resizable=0;points=[];" parent="jijcVxQb25p9yLqvrZua-68" vertex="1" connectable="0">
          <mxGeometry x="0.7117" y="-1" relative="1" as="geometry">
            <mxPoint y="-35" as="offset" />
          </mxGeometry>
        </mxCell>
        <mxCell id="jijcVxQb25p9yLqvrZua-51" value="Spremno za isporuku" style="rounded=1;whiteSpace=wrap;html=1;arcSize=40;fontColor=#000000;fillColor=#ffffc0;strokeColor=#ff0000;" parent="1" vertex="1">
          <mxGeometry x="620" y="260" width="120" height="40" as="geometry" />
        </mxCell>
        <mxCell id="jijcVxQb25p9yLqvrZua-52" value="" style="edgeStyle=orthogonalEdgeStyle;html=1;verticalAlign=bottom;endArrow=open;endSize=8;strokeColor=#ff0000;rounded=0;" parent="1" source="jijcVxQb25p9yLqvrZua-51" edge="1">
          <mxGeometry relative="1" as="geometry">
            <mxPoint x="680" y="360" as="targetPoint" />
          </mxGeometry>
        </mxCell>
        <mxCell id="jijcVxQb25p9yLqvrZua-56" value="Pošalji" style="edgeLabel;html=1;align=center;verticalAlign=middle;resizable=0;points=[];" parent="jijcVxQb25p9yLqvrZua-52" vertex="1" connectable="0">
          <mxGeometry x="-0.1626" y="3" relative="1" as="geometry">
            <mxPoint as="offset" />
          </mxGeometry>
        </mxCell>
        <mxCell id="jijcVxQb25p9yLqvrZua-70" style="edgeStyle=orthogonalEdgeStyle;rounded=0;orthogonalLoop=1;jettySize=auto;html=1;" parent="1" source="jijcVxQb25p9yLqvrZua-54" edge="1">
          <mxGeometry relative="1" as="geometry">
            <mxPoint x="760" y="480" as="targetPoint" />
          </mxGeometry>
        </mxCell>
        <mxCell id="jijcVxQb25p9yLqvrZua-71" value="Otkaži" style="edgeLabel;html=1;align=center;verticalAlign=middle;resizable=0;points=[];" parent="jijcVxQb25p9yLqvrZua-70" vertex="1" connectable="0">
          <mxGeometry x="0.6074" y="-3" relative="1" as="geometry">
            <mxPoint as="offset" />
          </mxGeometry>
        </mxCell>
        <mxCell id="jijcVxQb25p9yLqvrZua-54" value="U isporuci" style="rounded=1;whiteSpace=wrap;html=1;arcSize=40;fontColor=#000000;fillColor=#ffffc0;strokeColor=#ff0000;" parent="1" vertex="1">
          <mxGeometry x="620" y="360" width="120" height="40" as="geometry" />
        </mxCell>
        <mxCell id="jijcVxQb25p9yLqvrZua-57" value="Isporučena" style="rounded=1;whiteSpace=wrap;html=1;arcSize=40;fontColor=#000000;fillColor=#ffffc0;strokeColor=#ff0000;" parent="1" vertex="1">
          <mxGeometry x="530" y="480" width="120" height="40" as="geometry" />
        </mxCell>
        <mxCell id="jijcVxQb25p9yLqvrZua-58" value="" style="edgeStyle=orthogonalEdgeStyle;html=1;verticalAlign=bottom;endArrow=open;endSize=8;strokeColor=#ff0000;rounded=0;" parent="1" source="jijcVxQb25p9yLqvrZua-57" edge="1">
          <mxGeometry relative="1" as="geometry">
            <mxPoint x="590" y="580" as="targetPoint" />
          </mxGeometry>
        </mxCell>
        <mxCell id="jijcVxQb25p9yLqvrZua-59" style="edgeStyle=orthogonalEdgeStyle;rounded=0;orthogonalLoop=1;jettySize=auto;html=1;entryX=0.567;entryY=0;entryDx=0;entryDy=0;entryPerimeter=0;" parent="1" source="jijcVxQb25p9yLqvrZua-44" target="jijcVxQb25p9yLqvrZua-57" edge="1">
          <mxGeometry relative="1" as="geometry" />
        </mxCell>
        <mxCell id="jijcVxQb25p9yLqvrZua-63" value="Isporuči" style="edgeLabel;html=1;align=center;verticalAlign=middle;resizable=0;points=[];" parent="jijcVxQb25p9yLqvrZua-59" vertex="1" connectable="0">
          <mxGeometry x="0.0556" y="1" relative="1" as="geometry">
            <mxPoint as="offset" />
          </mxGeometry>
        </mxCell>
        <mxCell id="jijcVxQb25p9yLqvrZua-60" value="" style="ellipse;html=1;shape=endState;fillColor=#000000;strokeColor=#ff0000;" parent="1" vertex="1">
          <mxGeometry x="575" y="580" width="30" height="30" as="geometry" />
        </mxCell>
        <mxCell id="jijcVxQb25p9yLqvrZua-62" value="" style="endArrow=open;endFill=1;endSize=12;html=1;rounded=0;entryX=0;entryY=0.5;entryDx=0;entryDy=0;" parent="1" target="jijcVxQb25p9yLqvrZua-60" edge="1">
          <mxGeometry width="160" relative="1" as="geometry">
            <mxPoint x="470" y="590" as="sourcePoint" />
            <mxPoint x="570" y="600" as="targetPoint" />
          </mxGeometry>
        </mxCell>
        <mxCell id="jijcVxQb25p9yLqvrZua-65" value="Otkazana" style="rounded=1;whiteSpace=wrap;html=1;arcSize=40;fontColor=#000000;fillColor=#ffffc0;strokeColor=#ff0000;" parent="1" vertex="1">
          <mxGeometry x="670" y="480" width="120" height="40" as="geometry" />
        </mxCell>
        <mxCell id="jijcVxQb25p9yLqvrZua-66" value="" style="edgeStyle=orthogonalEdgeStyle;html=1;verticalAlign=bottom;endArrow=open;endSize=8;strokeColor=#ff0000;rounded=0;entryX=1;entryY=0.5;entryDx=0;entryDy=0;" parent="1" source="jijcVxQb25p9yLqvrZua-65" target="jijcVxQb25p9yLqvrZua-60" edge="1">
          <mxGeometry relative="1" as="geometry">
            <mxPoint x="730" y="580" as="targetPoint" />
            <Array as="points">
              <mxPoint x="730" y="595" />
            </Array>
          </mxGeometry>
        </mxCell>
      </root>
    </mxGraphModel>
  </diagram>
</mxfile>
